<?xml version="1.0" encoding="UTF-8"?>
<svg xmlns="http://www.w3.org/2000/svg" xmlns:xlink="http://www.w3.org/1999/xlink" width="750pt" height="749.999995pt" viewBox="0 0 750 749.999995" version="1.2">
<defs>
<filter id="alpha" filterUnits="objectBoundingBox" x="0%" y="0%" width="100%" height="100%">
  <feColorMatrix type="matrix" in="SourceGraphic" values="0 0 0 0 1 0 0 0 0 1 0 0 0 0 1 0 0 0 1 0"/>
</filter>
<mask id="mask0">
  <g filter="url(#alpha)">
<rect x="0" y="0" width="750" height="749.999995" style="fill:rgb(0%,0%,0%);fill-opacity:0.498;stroke:none;"/>
  </g>
</mask>
<clipPath id="clip2">
  <path d="M 0.601562 0.640625 L 47.160156 0.640625 L 47.160156 32.800781 L 0.601562 32.800781 Z M 0.601562 0.640625 "/>
</clipPath>
<clipPath id="clip1">
  <rect x="0" y="0" width="48" height="33"/>
</clipPath>
<g id="surface5" clip-path="url(#clip1)">
<g clip-path="url(#clip2)" clip-rule="nonzero">
<path style=" stroke:none;fill-rule:nonzero;fill:rgb(100%,71.759033%,77.249146%);fill-opacity:1;" d="M 47.078125 0.789062 C 39.429688 1.855469 31.683594 2.339844 23.839844 2.339844 C 16 2.339844 8.253906 1.855469 0.601562 0.789062 C 7.089844 12.207031 14.835938 22.753906 23.839844 32.429688 C 32.84375 22.753906 40.6875 12.109375 47.078125 0.789062 Z M 47.078125 0.789062 "/>
</g>
</g>
<mask id="mask1">
  <g filter="url(#alpha)">
<rect x="0" y="0" width="750" height="749.999995" style="fill:rgb(0%,0%,0%);fill-opacity:0.498;stroke:none;"/>
  </g>
</mask>
<clipPath id="clip4">
  <path d="M 1 0.199219 L 86.921875 0.199219 L 86.921875 95.238281 L 1 95.238281 Z M 1 0.199219 "/>
</clipPath>
<clipPath id="clip3">
  <rect x="0" y="0" width="87" height="96"/>
</clipPath>
<g id="surface8" clip-path="url(#clip3)">
<g clip-path="url(#clip4)" clip-rule="nonzero">
<path style=" stroke:none;fill-rule:nonzero;fill:rgb(100%,71.759033%,77.249146%);fill-opacity:1;" d="M 55.160156 85.488281 C 65.035156 89.648438 75.300781 92.839844 85.660156 95.066406 C 86.242188 89.261719 86.53125 83.359375 86.53125 77.359375 C 86.53125 54.71875 82.078125 32.753906 73.363281 12.046875 C 71.71875 8.082031 69.878906 4.210938 67.941406 0.4375 C 66.972656 0.824219 66.003906 1.308594 65.035156 1.695312 C 52.835938 6.824219 40.152344 10.597656 27.277344 12.726562 C 20.207031 25.789062 11.492188 37.882812 1.230469 48.816406 C 1.421875 49.011719 1.617188 49.203125 1.8125 49.398438 C 17.300781 64.878906 35.214844 76.972656 55.160156 85.488281 Z M 55.160156 85.488281 "/>
</g>
</g>
<mask id="mask2">
  <g filter="url(#alpha)">
<rect x="0" y="0" width="750" height="749.999995" style="fill:rgb(0%,0%,0%);fill-opacity:0.498;stroke:none;"/>
  </g>
</mask>
<clipPath id="clip5">
  <rect x="0" y="0" width="38" height="44"/>
</clipPath>
<g id="surface11" clip-path="url(#clip5)">
<path style=" stroke:none;fill-rule:nonzero;fill:rgb(100%,71.759033%,77.249146%);fill-opacity:1;" d="M 5.34375 33.117188 C 3.988281 36.210938 2.632812 39.308594 1.179688 42.308594 C 12.507812 40.082031 23.546875 36.792969 34.199219 32.246094 C 35.070312 31.859375 35.84375 31.566406 36.714844 31.179688 C 30.710938 20.441406 23.644531 10.378906 15.414062 1.089844 C 13.089844 12.023438 9.796875 22.761719 5.34375 33.117188 Z M 5.34375 33.117188 "/>
</g>
<mask id="mask3">
  <g filter="url(#alpha)">
<rect x="0" y="0" width="750" height="749.999995" style="fill:rgb(0%,0%,0%);fill-opacity:0.498;stroke:none;"/>
  </g>
</mask>
<clipPath id="clip7">
  <path d="M 1 0.078125 L 41 0.078125 L 41 42.800781 L 1 42.800781 Z M 1 0.078125 "/>
</clipPath>
<clipPath id="clip6">
  <rect x="0" y="0" width="42" height="43"/>
</clipPath>
<g id="surface14" clip-path="url(#clip6)">
<g clip-path="url(#clip7)" clip-rule="nonzero">
<path style=" stroke:none;fill-rule:nonzero;fill:rgb(100%,71.759033%,77.249146%);fill-opacity:1;" d="M 9.589844 9.835938 C 6.78125 11 3.972656 12.351562 1.167969 13.609375 C 15.011719 21.351562 27.597656 30.929688 38.929688 42.25 C 39.023438 42.347656 39.121094 42.445312 39.121094 42.445312 C 40.285156 34.316406 40.863281 26.191406 40.863281 17.867188 C 40.863281 11.964844 40.574219 6.0625 39.992188 0.160156 C 29.632812 2.484375 19.464844 5.675781 9.589844 9.835938 Z M 9.589844 9.835938 "/>
</g>
</g>
<mask id="mask4">
  <g filter="url(#alpha)">
<rect x="0" y="0" width="750" height="749.999995" style="fill:rgb(0%,0%,0%);fill-opacity:0.498;stroke:none;"/>
  </g>
</mask>
<clipPath id="clip9">
  <path d="M 0.160156 0.238281 L 100 0.238281 L 100 85.441406 L 0.160156 85.441406 Z M 0.160156 0.238281 "/>
</clipPath>
<clipPath id="clip8">
  <rect x="0" y="0" width="101" height="86"/>
</clipPath>
<g id="surface17" clip-path="url(#clip8)">
<g clip-path="url(#clip9)" clip-rule="nonzero">
<path style=" stroke:none;fill-rule:nonzero;fill:rgb(100%,71.759033%,77.249146%);fill-opacity:1;" d="M 25.167969 85.050781 C 42.308594 76.828125 57.894531 65.894531 71.449219 52.25 C 82.683594 41.027344 92.074219 28.546875 99.625 14.902344 C 98.753906 14.515625 97.980469 14.128906 97.109375 13.835938 C 76.390625 5.128906 54.410156 0.679688 31.753906 0.679688 C 21.585938 0.679688 11.613281 1.550781 1.835938 3.292969 C 2.511719 9.484375 2.800781 15.675781 2.800781 21.964844 C 2.800781 31.835938 2.027344 41.511719 0.382812 50.992188 C 10.160156 61.347656 18.390625 72.761719 25.167969 85.050781 Z M 25.167969 85.050781 "/>
</g>
</g>
<mask id="mask5">
  <g filter="url(#alpha)">
<rect x="0" y="0" width="750" height="749.999995" style="fill:rgb(0%,0%,0%);fill-opacity:0.498;stroke:none;"/>
  </g>
</mask>
<clipPath id="clip11">
  <path d="M 0.519531 0.238281 L 100.601562 0.238281 L 100.601562 85.441406 L 0.519531 85.441406 Z M 0.519531 0.238281 "/>
</clipPath>
<clipPath id="clip10">
  <rect x="0" y="0" width="101" height="86"/>
</clipPath>
<g id="surface20" clip-path="url(#clip10)">
<g clip-path="url(#clip11)" clip-rule="nonzero">
<path style=" stroke:none;fill-rule:nonzero;fill:rgb(100%,71.759033%,77.249146%);fill-opacity:1;" d="M 68.832031 0.679688 C 46.175781 0.679688 24.195312 5.128906 3.476562 13.835938 C 2.605469 14.226562 1.828125 14.515625 0.957031 14.902344 C 8.511719 28.546875 18 41.027344 29.132812 52.25 C 42.691406 65.796875 58.277344 76.828125 75.417969 85.050781 C 82.195312 72.761719 90.425781 61.347656 100.105469 50.992188 C 98.460938 41.511719 97.6875 31.738281 97.6875 21.964844 C 97.6875 15.675781 97.976562 9.484375 98.652344 3.292969 C 88.972656 1.550781 78.902344 0.679688 68.832031 0.679688 Z M 68.832031 0.679688 "/>
</g>
</g>
<mask id="mask6">
  <g filter="url(#alpha)">
<rect x="0" y="0" width="750" height="749.999995" style="fill:rgb(0%,0%,0%);fill-opacity:0.498;stroke:none;"/>
  </g>
</mask>
<clipPath id="clip13">
  <path d="M 1 0.359375 L 89 0.359375 L 89 107.878906 L 1 107.878906 Z M 1 0.359375 "/>
</clipPath>
<clipPath id="clip12">
  <rect x="0" y="0" width="90" height="108"/>
</clipPath>
<g id="surface23" clip-path="url(#clip12)">
<g clip-path="url(#clip13)" clip-rule="nonzero">
<path style=" stroke:none;fill-rule:nonzero;fill:rgb(100%,71.759033%,77.249146%);fill-opacity:1;" d="M 44.839844 0.5 C 31.285156 14.917969 20.539062 31.464844 12.890625 49.652344 C 7.078125 63.394531 3.207031 77.617188 1.171875 92.324219 C 12.015625 94.550781 22.667969 97.9375 33.027344 102.289062 C 37 104.03125 40.96875 105.871094 44.839844 107.804688 C 48.714844 105.871094 52.585938 104.03125 56.652344 102.289062 C 67.015625 97.9375 77.664062 94.644531 88.507812 92.324219 C 86.570312 77.617188 82.601562 63.394531 76.792969 49.652344 C 69.144531 31.464844 58.394531 14.917969 44.839844 0.5 Z M 44.839844 0.5 "/>
</g>
</g>
<mask id="mask7">
  <g filter="url(#alpha)">
<rect x="0" y="0" width="750" height="749.999995" style="fill:rgb(0%,0%,0%);fill-opacity:0.498;stroke:none;"/>
  </g>
</mask>
<clipPath id="clip15">
  <path d="M 1 0.199219 L 87 0.199219 L 87 95.238281 L 1 95.238281 Z M 1 0.199219 "/>
</clipPath>
<clipPath id="clip14">
  <rect x="0" y="0" width="87" height="96"/>
</clipPath>
<g id="surface26" clip-path="url(#clip14)">
<g clip-path="url(#clip15)" clip-rule="nonzero">
<path style=" stroke:none;fill-rule:nonzero;fill:rgb(100%,71.759033%,77.249146%);fill-opacity:1;" d="M 19.644531 0.4375 C 17.707031 4.210938 15.867188 8.082031 14.222656 12.046875 C 5.507812 32.753906 1.054688 54.71875 1.054688 77.359375 C 1.054688 83.261719 1.34375 89.164062 1.925781 95.066406 C 12.382812 92.839844 22.546875 89.648438 32.425781 85.488281 C 52.371094 77.070312 70.378906 64.976562 85.773438 49.589844 C 85.96875 49.398438 86.160156 49.203125 86.355469 49.011719 C 76.089844 38.078125 67.378906 25.980469 60.308594 12.917969 C 47.335938 10.695312 34.746094 7.015625 22.546875 1.890625 C 21.578125 1.308594 20.613281 0.921875 19.644531 0.4375 Z M 19.644531 0.4375 "/>
</g>
</g>
<mask id="mask8">
  <g filter="url(#alpha)">
<rect x="0" y="0" width="750" height="749.999995" style="fill:rgb(0%,0%,0%);fill-opacity:0.498;stroke:none;"/>
  </g>
</mask>
<clipPath id="clip17">
  <path d="M 0.160156 1 L 85.601562 1 L 85.601562 83 L 0.160156 83 Z M 0.160156 1 "/>
</clipPath>
<clipPath id="clip16">
  <rect x="0" y="0" width="86" height="83"/>
</clipPath>
<g id="surface29" clip-path="url(#clip16)">
<g clip-path="url(#clip17)" clip-rule="nonzero">
<path style=" stroke:none;fill-rule:nonzero;fill:rgb(100%,71.759033%,77.249146%);fill-opacity:1;" d="M 42.839844 82.402344 C 51.75 82.402344 60.464844 81.726562 69.082031 80.371094 C 71.113281 76.40625 73.050781 72.339844 74.792969 68.179688 C 79.539062 56.957031 83.023438 45.441406 85.152344 33.539062 C 84.28125 32.574219 83.3125 31.703125 82.441406 30.734375 C 70.628906 18.929688 57.363281 9.0625 42.839844 1.320312 C 28.316406 9.0625 15.050781 18.929688 3.238281 30.734375 C 2.269531 31.703125 1.398438 32.574219 0.527344 33.539062 C 2.753906 45.441406 6.144531 56.957031 10.890625 68.179688 C 12.632812 72.339844 14.566406 76.40625 16.601562 80.371094 C 25.21875 81.726562 33.933594 82.402344 42.839844 82.402344 Z M 42.839844 82.402344 "/>
</g>
</g>
<mask id="mask9">
  <g filter="url(#alpha)">
<rect x="0" y="0" width="750" height="749.999995" style="fill:rgb(0%,0%,0%);fill-opacity:0.498;stroke:none;"/>
  </g>
</mask>
<clipPath id="clip19">
  <path d="M 0.28125 1 L 170 1 L 170 174 L 0.28125 174 Z M 0.28125 1 "/>
</clipPath>
<clipPath id="clip18">
  <rect x="0" y="0" width="171" height="175"/>
</clipPath>
<g id="surface32" clip-path="url(#clip18)">
<g clip-path="url(#clip19)" clip-rule="nonzero">
<path style=" stroke:none;fill-rule:nonzero;fill:rgb(100%,71.759033%,77.249146%);fill-opacity:1;" d="M 48.515625 173.648438 C 71.175781 173.648438 93.152344 169.195312 113.875 160.488281 C 133.820312 152.070312 151.828125 139.976562 167.222656 124.589844 C 168.191406 123.621094 169.0625 122.753906 169.933594 121.785156 C 167.707031 109.882812 164.320312 98.367188 159.574219 87.144531 C 151.152344 67.214844 139.046875 49.214844 123.652344 33.832031 C 110.097656 20.285156 94.507812 9.253906 77.371094 1.03125 C 69.527344 15.253906 59.75 28.21875 48.128906 39.832031 C 34.1875 53.765625 18.210938 65.085938 0.589844 73.503906 C 2.527344 77.371094 4.367188 81.242188 6.109375 85.210938 C 15.113281 106.496094 19.664062 129.136719 19.664062 152.359375 C 19.664062 158.648438 19.375 164.839844 18.695312 171.035156 C 28.378906 172.777344 38.351562 173.648438 48.515625 173.648438 Z M 48.515625 173.648438 "/>
</g>
</g>
<clipPath id="clip20">
  <path d="M 379 467 L 622 467 L 622 660.042969 L 379 660.042969 Z M 379 467 "/>
</clipPath>
<mask id="mask10">
  <g filter="url(#alpha)">
<rect x="0" y="0" width="750" height="749.999995" style="fill:rgb(0%,0%,0%);fill-opacity:0.498;stroke:none;"/>
  </g>
</mask>
<clipPath id="clip22">
  <path d="M 1 0.28125 L 242.839844 0.28125 L 242.839844 193.042969 L 1 193.042969 Z M 1 0.28125 "/>
</clipPath>
<clipPath id="clip21">
  <rect x="0" y="0" width="243" height="194"/>
</clipPath>
<g id="surface35" clip-path="url(#clip21)">
<g clip-path="url(#clip22)" clip-rule="nonzero">
<path style=" stroke:none;fill-rule:nonzero;fill:rgb(100%,71.759033%,77.249146%);fill-opacity:1;" d="M 74.851562 193.042969 C 97.507812 193.042969 119.484375 188.589844 140.207031 179.882812 C 160.152344 171.464844 178.160156 159.371094 193.554688 143.984375 C 208.953125 128.601562 221.054688 110.601562 229.476562 90.671875 C 238.191406 69.964844 242.644531 48 242.644531 25.359375 C 242.644531 17.039062 242.066406 8.8125 240.902344 0.785156 C 240.808594 0.878906 240.710938 0.976562 240.710938 0.976562 C 224.832031 16.84375 206.335938 29.230469 185.808594 37.9375 C 164.507812 46.9375 141.851562 51.484375 118.613281 51.484375 C 108.253906 51.484375 98.085938 50.613281 88.113281 48.773438 C 86.082031 63.773438 82.113281 78.382812 76.109375 92.414062 C 67.394531 112.925781 54.902344 131.40625 39.121094 147.273438 C 27.792969 158.59375 15.109375 168.175781 1.359375 175.914062 C 4.070312 177.269531 6.878906 178.527344 9.785156 179.6875 C 30.214844 188.589844 52.191406 193.042969 74.851562 193.042969 Z M 74.851562 193.042969 "/>
</g>
</g>
<mask id="mask11">
  <g filter="url(#alpha)">
<rect x="0" y="0" width="750" height="749.999995" style="fill:rgb(0%,0%,0%);fill-opacity:0.498;stroke:none;"/>
  </g>
</mask>
<clipPath id="clip24">
  <path d="M 1 0.078125 L 166 0.078125 L 166 157 L 1 157 Z M 1 0.078125 "/>
</clipPath>
<clipPath id="clip23">
  <rect x="0" y="0" width="167" height="158"/>
</clipPath>
<g id="surface38" clip-path="url(#clip23)">
<g clip-path="url(#clip24)" clip-rule="nonzero">
<path style=" stroke:none;fill-rule:nonzero;fill:rgb(100%,71.759033%,77.249146%);fill-opacity:1;" d="M 146.757812 2.21875 C 138.140625 0.863281 129.425781 0.1875 120.515625 0.1875 C 97.859375 0.1875 75.882812 4.636719 55.160156 13.347656 C 35.214844 21.765625 17.207031 33.859375 1.8125 49.242188 C 1.617188 49.4375 1.421875 49.628906 1.230469 49.824219 C 15.269531 64.726562 26.308594 81.851562 34.34375 100.621094 C 40.25 114.652344 44.316406 129.261719 46.351562 144.261719 C 56.324219 142.519531 66.585938 141.550781 76.851562 141.550781 C 100.183594 141.550781 122.839844 146.097656 144.046875 155.097656 C 145.015625 155.484375 145.980469 155.96875 146.949219 156.355469 C 148.886719 152.582031 150.726562 148.710938 152.371094 144.742188 C 161.085938 124.039062 165.539062 102.074219 165.539062 79.433594 C 165.539062 56.789062 161.085938 34.828125 152.371094 14.121094 C 150.726562 10.25 148.789062 6.1875 146.757812 2.21875 Z M 146.757812 2.21875 "/>
</g>
</g>
<clipPath id="clip25">
  <path d="M 228 90.042969 L 522 90.042969 L 522 225 L 228 225 Z M 228 90.042969 "/>
</clipPath>
<mask id="mask12">
  <g filter="url(#alpha)">
<rect x="0" y="0" width="750" height="749.999995" style="fill:rgb(0%,0%,0%);fill-opacity:0.498;stroke:none;"/>
  </g>
</mask>
<clipPath id="clip27">
  <path d="M 0.480469 0.0429688 L 293 0.0429688 L 293 134.640625 L 0.480469 134.640625 Z M 0.480469 0.0429688 "/>
</clipPath>
<clipPath id="clip26">
  <rect x="0" y="0" width="294" height="135"/>
</clipPath>
<g id="surface41" clip-path="url(#clip26)">
<g clip-path="url(#clip27)" clip-rule="nonzero">
<path style=" stroke:none;fill-rule:nonzero;fill:rgb(100%,71.759033%,77.249146%);fill-opacity:1;" d="M 212.199219 13.199219 C 191.476562 4.492188 169.496094 0.0429688 146.839844 0.0429688 C 124.183594 0.0429688 102.203125 4.492188 81.484375 13.199219 C 61.539062 21.617188 43.527344 33.710938 28.132812 49.097656 C 17.386719 59.835938 8.285156 71.835938 0.828125 84.800781 C 8.480469 83.738281 16.226562 83.253906 24.066406 83.253906 C 47.402344 83.253906 70.058594 87.800781 91.261719 96.800781 C 111.789062 105.507812 130.285156 117.988281 146.164062 133.761719 C 146.355469 133.953125 146.550781 134.148438 146.648438 134.242188 C 146.839844 134.050781 146.9375 133.855469 147.132812 133.761719 C 163.203125 117.988281 181.699219 105.605469 202.222656 96.894531 C 223.527344 87.898438 246.183594 83.347656 269.421875 83.347656 C 277.261719 83.347656 285.007812 83.832031 292.660156 84.898438 C 285.203125 71.835938 276.101562 59.933594 265.355469 49.195312 C 250.054688 33.710938 232.144531 21.617188 212.199219 13.199219 Z M 212.199219 13.199219 "/>
</g>
</g>
<clipPath id="clip28">
  <path d="M 527 180 L 664.957031 180 L 664.957031 458 L 527 458 Z M 527 180 "/>
</clipPath>
<mask id="mask13">
  <g filter="url(#alpha)">
<rect x="0" y="0" width="750" height="749.999995" style="fill:rgb(0%,0%,0%);fill-opacity:0.498;stroke:none;"/>
  </g>
</mask>
<clipPath id="clip30">
  <path d="M 1 1 L 137.957031 1 L 137.957031 277.921875 L 1 277.921875 Z M 1 1 "/>
</clipPath>
<clipPath id="clip29">
  <rect x="0" y="0" width="138" height="278"/>
</clipPath>
<g id="surface44" clip-path="url(#clip29)">
<g clip-path="url(#clip30)" clip-rule="nonzero">
<path style=" stroke:none;fill-rule:nonzero;fill:rgb(100%,71.759033%,77.249146%);fill-opacity:1;" d="M 125.144531 231.179688 C 133.859375 210.570312 138.3125 188.605469 138.3125 165.964844 C 138.3125 143.324219 133.859375 121.359375 125.144531 100.652344 C 116.722656 80.722656 104.621094 62.726562 89.222656 47.339844 C 73.828125 31.957031 55.820312 19.859375 35.875 11.441406 C 25.222656 6.894531 14.183594 3.605469 2.855469 1.378906 C 4.308594 4.378906 5.761719 7.476562 7.019531 10.574219 C 16.023438 31.859375 20.574219 54.5 20.574219 77.722656 C 20.574219 101.039062 16.023438 123.683594 7.019531 144.871094 C 5.375 148.839844 3.535156 152.804688 1.5 156.578125 C 19.125 164.996094 35.097656 176.320312 49.042969 190.25 C 64.921875 206.121094 77.316406 224.601562 86.027344 245.113281 C 90.386719 255.464844 93.773438 266.207031 96 277.140625 C 108.203125 263.496094 117.980469 248.113281 125.144531 231.179688 Z M 125.144531 231.179688 "/>
</g>
</g>
<clipPath id="clip31">
  <path d="M 85.207031 180 L 222 180 L 222 458 L 85.207031 458 Z M 85.207031 180 "/>
</clipPath>
<mask id="mask14">
  <g filter="url(#alpha)">
<rect x="0" y="0" width="750" height="749.999995" style="fill:rgb(0%,0%,0%);fill-opacity:0.498;stroke:none;"/>
  </g>
</mask>
<clipPath id="clip33">
  <path d="M 0.207031 1 L 137 1 L 137 277.921875 L 0.207031 277.921875 Z M 0.207031 1 "/>
</clipPath>
<clipPath id="clip32">
  <rect x="0" y="0" width="137" height="278"/>
</clipPath>
<g id="surface47" clip-path="url(#clip32)">
<g clip-path="url(#clip33)" clip-rule="nonzero">
<path style=" stroke:none;fill-rule:nonzero;fill:rgb(100%,71.759033%,77.249146%);fill-opacity:1;" d="M 48.554688 47.339844 C 33.160156 62.726562 21.054688 80.722656 12.632812 100.652344 C 3.917969 121.359375 -0.535156 143.324219 -0.535156 165.964844 C -0.535156 188.605469 3.917969 210.570312 12.632812 231.277344 C 19.796875 248.210938 29.578125 263.59375 41.679688 277.332031 C 43.90625 266.398438 47.296875 255.660156 51.652344 245.308594 C 60.367188 224.792969 72.855469 206.3125 88.640625 190.445312 C 102.582031 176.511719 118.558594 165.191406 136.179688 156.773438 C 134.242188 152.902344 132.40625 149.03125 130.660156 145.066406 C 121.65625 123.777344 117.105469 101.136719 117.105469 77.914062 C 117.105469 54.597656 121.65625 31.957031 130.660156 10.765625 C 132.015625 7.667969 133.371094 4.574219 134.824219 1.574219 C 123.496094 3.800781 112.457031 7.089844 101.808594 11.636719 C 81.863281 19.859375 63.949219 31.957031 48.554688 47.339844 Z M 48.554688 47.339844 "/>
</g>
</g>
<mask id="mask15">
  <g filter="url(#alpha)">
<rect x="0" y="0" width="750" height="749.999995" style="fill:rgb(0%,0%,0%);fill-opacity:0.498;stroke:none;"/>
  </g>
</mask>
<clipPath id="clip35">
  <path d="M 1 0.078125 L 166 0.078125 L 166 157 L 1 157 Z M 1 0.078125 "/>
</clipPath>
<clipPath id="clip34">
  <rect x="0" y="0" width="166" height="158"/>
</clipPath>
<g id="surface50" clip-path="url(#clip34)">
<g clip-path="url(#clip35)" clip-rule="nonzero">
<path style=" stroke:none;fill-rule:nonzero;fill:rgb(100%,71.759033%,77.249146%);fill-opacity:1;" d="M 14.210938 14.410156 C 5.496094 35.117188 1.042969 57.082031 1.042969 79.722656 C 1.042969 102.363281 5.496094 124.328125 14.210938 145.035156 C 15.859375 149 17.699219 152.871094 19.632812 156.644531 C 20.601562 156.257812 21.570312 155.773438 22.539062 155.386719 C 43.839844 146.386719 66.496094 141.839844 89.734375 141.839844 C 100.09375 141.839844 110.261719 142.710938 120.234375 144.550781 C 122.269531 129.550781 126.238281 114.941406 132.242188 100.914062 C 140.179688 82.042969 151.316406 65.015625 165.355469 50.113281 C 165.160156 49.921875 164.96875 49.726562 164.773438 49.535156 C 149.378906 34.148438 131.371094 22.054688 111.425781 13.636719 C 90.703125 4.929688 68.722656 0.476562 46.066406 0.476562 C 37.160156 0.476562 28.445312 1.15625 19.828125 2.507812 C 17.890625 6.1875 15.957031 10.25 14.210938 14.410156 Z M 14.210938 14.410156 "/>
</g>
</g>
<mask id="mask16">
  <g filter="url(#alpha)">
<rect x="0" y="0" width="750" height="749.999995" style="fill:rgb(0%,0%,0%);fill-opacity:0.498;stroke:none;"/>
  </g>
</mask>
<clipPath id="clip37">
  <path d="M 0 0.398438 L 36.960938 0.398438 L 36.960938 43 L 0 43 Z M 0 0.398438 "/>
</clipPath>
<clipPath id="clip36">
  <rect x="0" y="0" width="37" height="44"/>
</clipPath>
<g id="surface53" clip-path="url(#clip36)">
<g clip-path="url(#clip37)" clip-rule="nonzero">
<path style=" stroke:none;fill-rule:nonzero;fill:rgb(100%,71.759033%,77.249146%);fill-opacity:1;" d="M 0.96875 31.082031 C 1.839844 31.46875 2.613281 31.859375 3.484375 32.148438 C 14.136719 36.695312 25.171875 39.984375 36.5 42.210938 C 35.050781 39.210938 33.597656 36.113281 32.339844 33.019531 C 27.980469 22.664062 24.59375 11.925781 22.363281 0.992188 C 14.136719 10.28125 6.96875 20.34375 0.96875 31.082031 Z M 0.96875 31.082031 "/>
</g>
</g>
<mask id="mask17">
  <g filter="url(#alpha)">
<rect x="0" y="0" width="750" height="749.999995" style="fill:rgb(0%,0%,0%);fill-opacity:0.498;stroke:none;"/>
  </g>
</mask>
<clipPath id="clip39">
  <path d="M 0.800781 0.558594 L 170.480469 0.558594 L 170.480469 174 L 0.800781 174 Z M 0.800781 0.558594 "/>
</clipPath>
<clipPath id="clip38">
  <rect x="0" y="0" width="171" height="175"/>
</clipPath>
<g id="surface56" clip-path="url(#clip38)">
<g clip-path="url(#clip39)" clip-rule="nonzero">
<path style=" stroke:none;fill-rule:nonzero;fill:rgb(100%,71.759033%,77.249146%);fill-opacity:1;" d="M 47.125 33.734375 C 31.730469 49.121094 19.628906 67.117188 11.203125 87.046875 C 6.460938 98.273438 2.972656 109.785156 0.84375 121.6875 C 1.714844 122.65625 2.683594 123.527344 3.554688 124.492188 C 18.949219 139.878906 36.957031 151.972656 56.90625 160.390625 C 77.625 169.097656 99.605469 173.550781 122.261719 173.550781 C 132.425781 173.550781 142.402344 172.679688 152.179688 170.9375 C 151.503906 164.746094 151.210938 158.550781 151.210938 152.261719 C 151.210938 128.945312 155.761719 106.304688 164.765625 85.113281 C 166.414062 81.144531 168.253906 77.179688 170.285156 73.40625 C 152.664062 64.988281 136.6875 53.667969 122.746094 39.734375 C 111.125 28.121094 101.347656 15.15625 93.503906 0.933594 C 76.269531 9.160156 60.777344 20.1875 47.125 33.734375 Z M 47.125 33.734375 "/>
</g>
</g>
<mask id="mask18">
  <g filter="url(#alpha)">
<rect x="0" y="0" width="750" height="749.999995" style="fill:rgb(0%,0%,0%);fill-opacity:0.498;stroke:none;"/>
  </g>
</mask>
<clipPath id="clip41">
  <path d="M 1 0.28125 L 176.960938 0.28125 L 176.960938 173.800781 L 1 173.800781 Z M 1 0.28125 "/>
</clipPath>
<clipPath id="clip40">
  <rect x="0" y="0" width="177" height="174"/>
</clipPath>
<g id="surface59" clip-path="url(#clip40)">
<g clip-path="url(#clip41)" clip-rule="nonzero">
<path style=" stroke:none;fill-rule:nonzero;fill:rgb(100%,71.759033%,77.249146%);fill-opacity:1;" d="M 128.441406 143.886719 C 143.835938 128.503906 155.941406 110.507812 164.363281 90.574219 C 170.171875 76.835938 174.046875 62.613281 176.078125 47.90625 C 165.234375 45.679688 154.585938 42.292969 144.222656 37.9375 C 123.699219 29.230469 105.203125 16.75 89.324219 0.976562 C 89.132812 0.785156 88.9375 0.589844 88.839844 0.492188 C 88.648438 0.6875 88.550781 0.878906 88.355469 0.976562 C 72.476562 16.84375 53.984375 29.230469 33.457031 37.9375 C 23.097656 42.292969 12.445312 45.582031 1.601562 47.90625 C 3.539062 62.613281 7.507812 76.835938 13.316406 90.574219 C 21.742188 110.507812 33.84375 128.503906 49.238281 143.886719 C 61.050781 155.691406 74.316406 165.5625 88.839844 173.300781 C 103.363281 165.5625 116.628906 155.691406 128.441406 143.886719 Z M 128.441406 143.886719 "/>
</g>
</g>
<mask id="mask19">
  <g filter="url(#alpha)">
<rect x="0" y="0" width="750" height="749.999995" style="fill:rgb(0%,0%,0%);fill-opacity:0.498;stroke:none;"/>
  </g>
</mask>
<clipPath id="clip43">
  <path d="M 0.28125 0.078125 L 41 0.078125 L 41 42.800781 L 0.28125 42.800781 Z M 0.28125 0.078125 "/>
</clipPath>
<clipPath id="clip42">
  <rect x="0" y="0" width="42" height="43"/>
</clipPath>
<g id="surface62" clip-path="url(#clip42)">
<g clip-path="url(#clip43)" clip-rule="nonzero">
<path style=" stroke:none;fill-rule:nonzero;fill:rgb(100%,71.759033%,77.249146%);fill-opacity:1;" d="M 0.71875 17.964844 C 0.71875 26.285156 1.300781 34.511719 2.464844 42.542969 C 2.558594 42.445312 2.65625 42.347656 2.65625 42.347656 C 13.984375 31.027344 26.667969 21.449219 40.417969 13.707031 C 37.707031 12.351562 34.898438 11.09375 31.996094 9.933594 C 22.117188 5.773438 11.855469 2.582031 1.496094 0.355469 C 1.011719 6.0625 0.71875 11.964844 0.71875 17.964844 Z M 0.71875 17.964844 "/>
</g>
</g>
<clipPath id="clip44">
  <path d="M 127 467 L 371 467 L 371 660.042969 L 127 660.042969 Z M 127 467 "/>
</clipPath>
<mask id="mask20">
  <g filter="url(#alpha)">
<rect x="0" y="0" width="750" height="749.999995" style="fill:rgb(0%,0%,0%);fill-opacity:0.498;stroke:none;"/>
  </g>
</mask>
<clipPath id="clip46">
  <path d="M 1 0.28125 L 243 0.28125 L 243 193.042969 L 1 193.042969 Z M 1 0.28125 "/>
</clipPath>
<clipPath id="clip45">
  <rect x="0" y="0" width="244" height="194"/>
</clipPath>
<g id="surface65" clip-path="url(#clip45)">
<g clip-path="url(#clip46)" clip-rule="nonzero">
<path style=" stroke:none;fill-rule:nonzero;fill:rgb(100%,71.759033%,77.249146%);fill-opacity:1;" d="M 2.777344 0.785156 C 1.617188 8.910156 1.035156 17.039062 1.035156 25.359375 C 1.035156 48 5.488281 69.964844 14.203125 90.671875 C 22.628906 110.601562 34.730469 128.601562 50.125 143.984375 C 65.519531 159.371094 83.53125 171.464844 103.476562 179.882812 C 124.195312 188.589844 146.175781 193.042969 168.832031 193.042969 C 191.488281 193.042969 213.46875 188.589844 234.1875 179.882812 C 236.996094 178.722656 239.804688 177.367188 242.613281 176.109375 C 228.765625 168.367188 216.179688 158.789062 204.851562 147.46875 C 188.972656 131.601562 176.578125 113.121094 167.863281 92.605469 C 161.957031 78.578125 157.890625 63.964844 155.859375 48.96875 C 145.882812 50.710938 135.621094 51.679688 125.359375 51.679688 C 102.023438 51.679688 79.367188 47.128906 58.160156 38.132812 C 37.636719 29.421875 19.140625 16.941406 3.261719 1.171875 C 2.972656 0.878906 2.875 0.878906 2.777344 0.785156 Z M 2.777344 0.785156 "/>
</g>
</g>
<clipPath id="clip47">
  <path d="M 175.796875 694.796875 L 574.046875 694.796875 L 574.046875 707.546875 L 175.796875 707.546875 Z M 175.796875 694.796875 "/>
</clipPath>
</defs>
<g id="surface1">
<use xlink:href="#surface5" transform="matrix(1,0,0,1,351,428)" mask="url(#mask0)"/>
<use xlink:href="#surface8" transform="matrix(1,0,0,1,377,415)" mask="url(#mask1)"/>
<use xlink:href="#surface11" transform="matrix(1,0,0,1,406,380)" mask="url(#mask2)"/>
<use xlink:href="#surface14" transform="matrix(1,0,0,1,379,328)" mask="url(#mask3)"/>
<use xlink:href="#surface17" transform="matrix(1,0,0,1,422,324)" mask="url(#mask4)"/>
<use xlink:href="#surface20" transform="matrix(1,0,0,1,227,324)" mask="url(#mask5)"/>
<use xlink:href="#surface23" transform="matrix(1,0,0,1,330,231)" mask="url(#mask6)"/>
<use xlink:href="#surface26" transform="matrix(1,0,0,1,285,415)" mask="url(#mask7)"/>
<use xlink:href="#surface29" transform="matrix(1,0,0,1,332,343)" mask="url(#mask8)"/>
<use xlink:href="#surface32" transform="matrix(1,0,0,1,449,340)" mask="url(#mask9)"/>
<g clip-path="url(#clip20)" clip-rule="nonzero">
<use xlink:href="#surface35" transform="matrix(1,0,0,1,379,467)" mask="url(#mask10)"/>
</g>
<use xlink:href="#surface38" transform="matrix(1,0,0,1,377,178)" mask="url(#mask11)"/>
<g clip-path="url(#clip25)" clip-rule="nonzero">
<use xlink:href="#surface41" transform="matrix(1,0,0,1,228,90)" mask="url(#mask12)"/>
</g>
<g clip-path="url(#clip28)" clip-rule="nonzero">
<use xlink:href="#surface44" transform="matrix(1,0,0,1,527,180)" mask="url(#mask13)"/>
</g>
<g clip-path="url(#clip31)" clip-rule="nonzero">
<use xlink:href="#surface47" transform="matrix(1,0,0,1,85,180)" mask="url(#mask14)"/>
</g>
<use xlink:href="#surface50" transform="matrix(1,0,0,1,206,178)" mask="url(#mask15)"/>
<use xlink:href="#surface53" transform="matrix(1,0,0,1,306,380)" mask="url(#mask16)"/>
<use xlink:href="#surface56" transform="matrix(1,0,0,1,130,340)" mask="url(#mask17)"/>
<use xlink:href="#surface59" transform="matrix(1,0,0,1,286,467)" mask="url(#mask18)"/>
<use xlink:href="#surface62" transform="matrix(1,0,0,1,329,328)" mask="url(#mask19)"/>
<g clip-path="url(#clip44)" clip-rule="nonzero">
<use xlink:href="#surface65" transform="matrix(1,0,0,1,127,467)" mask="url(#mask20)"/>
</g>
<g clip-path="url(#clip47)" clip-rule="nonzero">
<path style=" stroke:none;fill-rule:nonzero;fill:rgb(39.99939%,39.99939%,39.99939%);fill-opacity:1;" d="M 175.796875 501.847656 L 574.046875 501.847656 L 574.046875 900.097656 L 175.796875 900.097656 Z M 175.796875 501.847656 "/>
</g>
</g>
</svg>
